<svg 
 xmlns="http://www.w3.org/2000/svg" 
 viewBox="0 0 962 141" 
 width="200" height="30"> 
<path fill-rule="evenodd"  fill="rgb(0, 255, 66)"
 d="M961.715,120.329 C961.698,122.647 961.404,124.781 960.821,126.722 C960.221,128.722 959.321,130.553 958.121,132.222 C956.921,133.888 955.487,135.322 953.821,136.522 C952.153,137.722 950.321,138.622 948.321,139.222 C946.378,139.805 944.245,140.102 941.925,140.119 L941.921,140.122 L941.721,140.122 L941.521,140.122 L941.518,140.119 C939.198,140.102 937.064,139.805 935.121,139.222 C933.121,138.622 931.287,137.722 929.621,136.522 C927.953,135.322 926.521,133.888 925.321,132.222 C924.121,130.553 923.221,128.722 922.621,126.722 C922.039,124.781 921.745,122.647 921.728,120.329 L921.721,120.322 L921.721,120.122 L921.521,120.122 L921.518,120.119 C919.198,120.102 917.064,119.805 915.121,119.222 C913.121,118.622 911.287,117.722 909.621,116.522 C907.953,115.322 906.521,113.891 905.321,112.222 C904.121,110.557 903.221,108.722 902.621,106.722 C902.039,104.781 901.745,102.647 901.728,100.329 L901.721,100.322 L901.721,100.122 L901.521,100.122 L901.518,100.119 C899.198,100.102 897.064,99.805 895.121,99.222 C893.928,98.864 892.795,98.397 891.721,97.826 C890.646,98.397 889.515,98.864 888.321,99.222 C886.378,99.805 884.245,100.102 881.925,100.119 L881.921,100.122 L881.721,100.122 L881.721,100.322 L881.715,100.329 C881.698,102.647 881.404,104.781 880.821,106.722 C880.463,107.918 879.984,109.046 879.411,110.123 C879.984,111.199 880.463,112.327 880.821,113.522 C881.404,115.464 881.698,117.597 881.715,119.916 L881.721,119.922 L881.721,120.122 L881.721,120.322 L881.715,120.329 C881.698,122.647 881.404,124.781 880.821,126.722 C880.221,128.722 879.321,130.553 878.121,132.222 C876.921,133.888 875.487,135.322 873.821,136.522 C872.153,137.722 870.321,138.622 868.321,139.222 C866.378,139.805 864.245,140.102 861.925,140.119 L861.921,140.122 L861.721,140.122 L861.521,140.122 L861.518,140.119 C859.198,140.102 857.064,139.805 855.121,139.222 C853.121,138.622 851.290,137.722 849.621,136.522 C847.956,135.322 846.521,133.888 845.321,132.222 C844.680,131.331 844.131,130.389 843.661,129.403 C843.191,130.389 842.643,131.331 842.001,132.222 C840.801,133.888 839.367,135.322 837.701,136.522 C836.033,137.722 834.201,138.622 832.201,139.222 C830.258,139.805 828.125,140.102 825.805,140.119 L825.801,140.122 L825.601,140.122 L825.401,140.122 L825.398,140.119 C823.078,140.102 820.944,139.805 819.001,139.222 C817.001,138.622 815.167,137.722 813.501,136.522 C811.833,135.322 810.401,133.888 809.201,132.222 C808.001,130.553 807.101,128.722 806.501,126.722 C805.919,124.781 805.625,122.647 805.608,120.329 L805.601,120.322 L805.601,120.122 L805.401,120.122 L805.398,120.119 C803.078,120.102 800.944,119.805 799.001,119.222 C797.001,118.622 795.167,117.722 793.501,116.522 C791.833,115.322 790.401,113.891 789.201,112.222 C788.001,110.557 787.101,108.722 786.501,106.722 C785.919,104.781 785.625,102.647 785.608,100.329 L785.601,100.322 L785.601,100.122 L785.401,100.122 L785.398,100.119 C783.078,100.102 780.944,99.805 779.001,99.222 C777.808,98.864 776.675,98.397 775.601,97.826 C774.526,98.397 773.395,98.864 772.201,99.222 C770.258,99.805 768.125,100.102 765.805,100.119 L765.801,100.122 L765.601,100.122 L765.601,100.322 L765.595,100.329 C765.578,102.647 765.284,104.781 764.701,106.722 C764.343,107.918 763.864,109.046 763.291,110.123 C763.864,111.199 764.343,112.327 764.701,113.522 C765.284,115.464 765.578,117.597 765.595,119.916 L765.601,119.922 L765.601,120.122 L765.601,120.322 L765.595,120.329 C765.578,122.647 765.284,124.781 764.701,126.722 C764.101,128.722 763.201,130.553 762.001,132.222 C760.801,133.888 759.367,135.322 757.701,136.522 C756.033,137.722 754.201,138.622 752.201,139.222 C750.258,139.805 748.125,140.102 745.805,140.119 L745.801,140.122 L745.601,140.122 L745.401,140.122 L745.398,140.119 C743.078,140.102 740.944,139.805 739.001,139.222 C737.001,138.622 735.170,137.722 733.501,136.522 C731.836,135.322 730.401,133.888 729.201,132.222 C728.560,131.331 728.011,130.389 727.541,129.403 C727.071,130.389 726.523,131.331 725.881,132.222 C724.681,133.888 723.247,135.322 721.581,136.522 C719.913,137.722 718.081,138.622 716.081,139.222 C714.138,139.805 712.005,140.102 709.685,140.119 L709.681,140.122 L709.481,140.122 L709.281,140.122 L709.278,140.119 C706.958,140.102 704.824,139.805 702.881,139.222 C700.881,138.622 699.047,137.722 697.381,136.522 C695.713,135.322 694.281,133.888 693.081,132.222 C691.881,130.553 690.981,128.722 690.381,126.722 C689.799,124.781 689.505,122.647 689.488,120.329 L689.481,120.322 L689.481,120.122 L689.281,120.122 L689.278,120.119 C686.958,120.102 684.824,119.805 682.881,119.222 C680.881,118.622 679.047,117.722 677.381,116.522 C675.713,115.322 674.281,113.891 673.081,112.222 C671.881,110.557 670.981,108.722 670.381,106.722 C669.799,104.781 669.505,102.647 669.488,100.329 L669.481,100.322 L669.481,100.122 L669.281,100.122 L669.278,100.119 C666.958,100.102 664.824,99.805 662.881,99.222 C661.688,98.864 660.555,98.397 659.481,97.826 C658.406,98.397 657.275,98.864 656.081,99.222 C654.138,99.805 652.005,100.102 649.685,100.119 L649.681,100.122 L649.481,100.122 L649.481,100.322 L649.475,100.329 C649.458,102.647 649.164,104.781 648.581,106.722 C648.223,107.918 647.744,109.046 647.171,110.123 C647.744,111.199 648.223,112.327 648.581,113.522 C649.164,115.464 649.458,117.597 649.475,119.916 L649.481,119.922 L649.481,120.122 L649.481,120.322 L649.475,120.329 C649.458,122.647 649.164,124.781 648.581,126.722 C647.981,128.722 647.081,130.553 645.881,132.222 C644.681,133.888 643.247,135.322 641.581,136.522 C639.913,137.722 638.081,138.622 636.081,139.222 C634.138,139.805 632.005,140.102 629.685,140.119 L629.681,140.122 L629.481,140.122 L629.281,140.122 L629.278,140.119 C626.958,140.102 624.824,139.805 622.881,139.222 C620.881,138.622 619.050,137.722 617.381,136.522 C615.716,135.322 614.281,133.888 613.081,132.222 C611.881,130.553 610.981,128.722 610.381,126.722 C610.317,126.507 610.269,126.279 610.212,126.059 C610.154,126.280 610.106,126.507 610.041,126.722 C609.441,128.722 608.541,130.553 607.341,132.222 C606.141,133.888 604.707,135.322 603.041,136.522 C601.373,137.722 599.541,138.622 597.541,139.222 C595.598,139.805 593.465,140.102 591.145,140.119 L591.141,140.122 L590.941,140.122 L590.741,140.122 L590.738,140.119 C588.418,140.102 586.284,139.805 584.341,139.222 C582.341,138.622 580.510,137.722 578.841,136.522 C577.176,135.322 575.741,133.888 574.541,132.222 C573.341,130.553 572.441,128.722 571.841,126.722 C571.259,124.781 570.965,122.647 570.948,120.329 L570.941,120.322 L570.941,120.122 L570.941,119.922 L570.948,119.916 C570.965,117.597 571.259,115.464 571.841,113.522 C572.200,112.327 572.679,111.199 573.252,110.123 C572.679,109.046 572.200,107.918 571.841,106.722 C571.259,104.781 570.965,102.647 570.948,100.329 L570.941,100.322 L570.941,100.122 L570.941,99.922 L570.948,99.916 C570.965,97.597 571.259,95.464 571.841,93.522 C572.200,92.327 572.679,91.199 573.252,90.123 C572.679,89.046 572.200,87.918 571.841,86.722 C571.259,84.781 570.965,82.647 570.948,80.329 L570.941,80.322 L570.941,80.122 L570.941,79.922 L570.948,79.916 C570.965,77.597 571.259,75.464 571.841,73.522 C572.200,72.327 572.679,71.199 573.252,70.123 C572.679,69.046 572.200,67.918 571.841,66.722 C571.259,64.781 570.965,62.647 570.948,60.329 L570.941,60.322 L570.941,60.122 L570.941,59.922 L570.948,59.916 C570.965,57.597 571.259,55.464 571.841,53.522 C572.200,52.327 572.679,51.199 573.252,50.123 C572.679,49.046 572.200,47.918 571.841,46.722 C571.259,44.781 570.965,42.647 570.948,40.329 L570.941,40.322 L570.941,40.122 L570.941,39.922 L570.948,39.916 C570.950,39.620 570.964,39.333 570.976,39.044 C570.792,39.105 570.608,39.166 570.421,39.222 C568.478,39.805 566.345,40.102 564.025,40.119 L564.021,40.122 L563.821,40.122 L563.621,40.122 L563.618,40.119 C561.298,40.102 559.164,39.805 557.221,39.222 C556.028,38.864 554.895,38.397 553.821,37.826 C552.746,38.397 551.615,38.864 550.421,39.222 C548.478,39.805 546.345,40.102 544.025,40.119 L544.021,40.122 L543.821,40.122 L543.821,40.322 L543.815,40.329 C543.798,42.647 543.504,44.781 542.921,46.722 C542.563,47.918 542.084,49.046 541.511,50.123 C542.084,51.199 542.563,52.327 542.921,53.522 C543.504,55.464 543.798,57.597 543.815,59.916 L543.821,59.922 L543.821,60.122 L543.821,60.322 L543.815,60.329 C543.798,62.647 543.504,64.781 542.921,66.722 C542.563,67.918 542.084,69.046 541.511,70.123 C542.084,71.199 542.563,72.327 542.921,73.522 C543.504,75.464 543.798,77.597 543.815,79.916 L543.821,79.922 L543.821,80.122 L543.821,80.322 L543.815,80.329 C543.798,82.647 543.504,84.781 542.921,86.722 C542.563,87.918 542.084,89.046 541.511,90.123 C542.084,91.199 542.563,92.327 542.921,93.522 C543.504,95.464 543.798,97.597 543.815,99.916 L543.821,99.922 L543.821,100.122 L543.821,100.322 L543.815,100.329 C543.798,102.647 543.504,104.781 542.921,106.722 C542.563,107.918 542.084,109.046 541.511,110.123 C542.084,111.199 542.563,112.327 542.921,113.522 C543.504,115.464 543.798,117.597 543.815,119.916 L543.821,119.922 L543.821,120.122 L543.821,120.322 L543.815,120.329 C543.798,122.647 543.504,124.781 542.921,126.722 C542.321,128.722 541.421,130.553 540.221,132.222 C539.021,133.888 537.587,135.322 535.921,136.522 C534.253,137.722 532.421,138.622 530.421,139.222 C528.478,139.805 526.345,140.102 524.025,140.119 L524.021,140.122 L523.821,140.122 L523.621,140.122 L523.618,140.119 C521.298,140.102 519.164,139.805 517.221,139.222 C515.221,138.622 513.387,137.722 511.721,136.522 C510.053,135.322 508.621,133.888 507.421,132.222 C506.221,130.553 505.321,128.722 504.721,126.722 C504.139,124.781 503.845,122.647 503.828,120.329 L503.821,120.322 L503.821,120.122 L503.821,119.922 L503.828,119.916 C503.845,117.597 504.139,115.464 504.721,113.522 C505.080,112.327 505.559,111.199 506.132,110.123 C505.559,109.046 505.080,107.918 504.721,106.722 C504.139,104.781 503.845,102.647 503.828,100.329 L503.821,100.322 L503.821,100.122 L503.821,99.922 L503.828,99.916 C503.845,97.597 504.139,95.464 504.721,93.522 C505.080,92.327 505.559,91.199 506.132,90.123 C505.559,89.046 505.080,87.918 504.721,86.722 C504.139,84.781 503.845,82.647 503.828,80.329 L503.821,80.322 L503.821,80.122 L503.821,79.922 L503.828,79.916 C503.845,77.597 504.139,75.464 504.721,73.522 C505.080,72.327 505.559,71.199 506.132,70.123 C505.559,69.046 505.080,67.918 504.721,66.722 C504.139,64.781 503.845,62.647 503.828,60.329 L503.821,60.322 L503.821,60.122 L503.821,59.922 L503.828,59.916 C503.845,57.597 504.139,55.464 504.721,53.522 C505.080,52.327 505.559,51.199 506.132,50.123 C505.559,49.046 505.080,47.918 504.721,46.722 C504.139,44.781 503.845,42.647 503.828,40.329 L503.821,40.322 L503.821,40.122 L503.621,40.122 L503.618,40.119 C501.298,40.102 499.164,39.805 497.221,39.222 C496.028,38.864 494.895,38.397 493.821,37.826 C492.746,38.397 491.615,38.864 490.421,39.222 C488.478,39.805 486.345,40.102 484.025,40.119 L484.021,40.122 L483.821,40.122 L483.621,40.122 L483.618,40.119 C481.298,40.102 479.164,39.805 477.221,39.222 C475.221,38.622 473.390,37.722 471.721,36.522 C470.266,35.474 468.987,34.249 467.887,32.843 C467.965,33.070 468.052,33.291 468.121,33.522 C468.704,35.464 468.998,37.597 469.015,39.916 L469.021,39.922 L469.021,40.122 L469.021,40.322 L469.015,40.329 C468.998,42.647 468.704,44.781 468.121,46.722 C467.763,47.918 467.284,49.046 466.711,50.123 C467.284,51.199 467.763,52.327 468.121,53.522 C468.704,55.464 468.998,57.597 469.015,59.916 L469.021,59.922 L469.021,60.122 L469.021,60.322 L469.015,60.329 C468.998,62.647 468.704,64.781 468.121,66.722 C467.521,68.722 466.621,70.557 465.421,72.222 C464.221,73.891 462.787,75.322 461.121,76.522 C459.453,77.722 457.621,78.622 455.621,79.222 C453.678,79.805 451.545,80.102 449.225,80.119 L449.221,80.122 L449.021,80.122 L449.021,80.322 L449.015,80.329 C448.998,82.647 448.704,84.781 448.121,86.722 C447.521,88.722 446.621,90.557 445.421,92.222 C444.221,93.891 442.787,95.322 441.121,96.522 C439.453,97.722 437.621,98.622 435.621,99.222 C433.678,99.805 431.545,100.102 429.225,100.119 L429.221,100.122 L429.021,100.122 L428.821,100.122 L428.818,100.119 C426.498,100.102 424.364,99.805 422.421,99.222 C421.228,98.864 420.095,98.397 419.021,97.826 C417.946,98.397 416.815,98.864 415.621,99.222 C413.678,99.805 411.545,100.102 409.225,100.119 L409.221,100.122 L409.021,100.122 L408.821,100.122 L408.818,100.119 C406.498,100.102 404.364,99.805 402.421,99.222 C401.228,98.864 400.095,98.397 399.021,97.826 C397.946,98.397 396.815,98.864 395.621,99.222 C393.678,99.805 391.545,100.102 389.225,100.119 L389.221,100.122 L389.021,100.122 L389.021,100.322 L389.015,100.329 C388.998,102.647 388.704,104.781 388.121,106.722 C387.763,107.918 387.284,109.046 386.711,110.123 C387.284,111.199 387.763,112.327 388.121,113.522 C388.704,115.464 388.998,117.597 389.015,119.916 L389.021,119.922 L389.021,120.122 L389.021,120.322 L389.015,120.329 C388.998,122.647 388.704,124.781 388.121,126.722 C387.521,128.722 386.621,130.553 385.421,132.222 C384.221,133.888 382.787,135.322 381.121,136.522 C379.453,137.722 377.621,138.622 375.621,139.222 C373.678,139.805 371.545,140.102 369.225,140.119 L369.221,140.122 L369.021,140.122 L368.821,140.122 L368.818,140.119 C366.498,140.102 364.364,139.805 362.421,139.222 C360.421,138.622 358.590,137.722 356.921,136.522 C355.256,135.322 353.821,133.888 352.621,132.222 C351.421,130.553 350.521,128.722 349.921,126.722 C349.339,124.781 349.045,122.647 349.028,120.329 L349.021,120.322 L349.021,120.122 L349.021,119.922 L349.028,119.916 C349.045,117.597 349.339,115.464 349.921,113.522 C350.280,112.327 350.759,111.199 351.332,110.123 C350.759,109.046 350.280,107.918 349.921,106.722 C349.339,104.781 349.045,102.647 349.028,100.329 L349.021,100.322 L349.021,100.122 L349.021,99.922 L349.028,99.916 C349.045,97.597 349.339,95.464 349.921,93.522 C350.280,92.327 350.759,91.199 351.332,90.123 C350.759,89.046 350.280,87.918 349.921,86.722 C349.339,84.781 349.045,82.647 349.028,80.329 L349.021,80.322 L349.021,80.122 L349.021,79.922 L349.028,79.916 C349.045,77.597 349.339,75.464 349.921,73.522 C350.280,72.327 350.759,71.199 351.332,70.123 C350.759,69.046 350.280,67.918 349.921,66.722 C349.339,64.781 349.045,62.647 349.028,60.329 L349.021,60.322 L349.021,60.122 L349.021,59.922 L349.028,59.916 C349.045,57.597 349.339,55.464 349.921,53.522 C350.280,52.327 350.759,51.199 351.332,50.123 C351.206,49.885 351.077,49.648 350.961,49.404 C350.491,50.390 349.943,51.332 349.301,52.222 C348.101,53.891 346.667,55.322 345.001,56.522 C343.333,57.722 341.501,58.622 339.501,59.222 C337.558,59.805 335.425,60.102 333.105,60.119 L333.101,60.122 L332.901,60.122 L332.901,60.322 L332.895,60.329 C332.878,62.647 332.584,64.781 332.001,66.722 C331.401,68.722 330.501,70.557 329.301,72.222 C328.101,73.891 326.667,75.322 325.001,76.522 C323.333,77.722 321.501,78.622 319.501,79.222 C317.558,79.805 315.425,80.102 313.105,80.119 L313.101,80.122 L312.901,80.122 L312.901,80.322 L312.895,80.329 C312.878,82.647 312.584,84.781 312.001,86.722 C311.643,87.918 311.164,89.046 310.591,90.123 C311.164,91.199 311.643,92.327 312.001,93.522 C312.584,95.464 312.878,97.597 312.895,99.916 L312.901,99.922 L312.901,100.122 L312.901,100.322 L312.895,100.329 C312.878,102.647 312.584,104.781 312.001,106.722 C311.643,107.918 311.164,109.046 310.591,110.123 C311.164,111.199 311.643,112.327 312.001,113.522 C312.584,115.464 312.878,117.597 312.895,119.916 L312.901,119.922 L312.901,120.122 L312.901,120.322 L312.895,120.329 C312.878,122.647 312.584,124.781 312.001,126.722 C311.401,128.722 310.501,130.553 309.301,132.222 C308.101,133.888 306.667,135.322 305.001,136.522 C303.333,137.722 301.501,138.622 299.501,139.222 C297.558,139.805 295.425,140.102 293.105,140.119 L293.101,140.122 L292.901,140.122 L292.701,140.122 L292.698,140.119 C290.378,140.102 288.244,139.805 286.301,139.222 C284.301,138.622 282.467,137.722 280.801,136.522 C279.133,135.322 277.701,133.888 276.501,132.222 C275.301,130.553 274.401,128.722 273.801,126.722 C273.219,124.781 272.925,122.647 272.908,120.329 L272.901,120.322 L272.901,120.122 L272.901,119.922 L272.908,119.916 C272.925,117.597 273.219,115.464 273.801,113.522 C274.160,112.327 274.639,111.199 275.212,110.123 C274.639,109.046 274.160,107.918 273.801,106.722 C273.219,104.781 272.925,102.647 272.908,100.329 L272.901,100.322 L272.901,100.122 L272.901,99.922 L272.908,99.916 C272.925,97.597 273.219,95.464 273.801,93.522 C274.160,92.327 274.639,91.199 275.212,90.123 C274.639,89.046 274.160,87.918 273.801,86.722 C273.219,84.781 272.925,82.647 272.908,80.329 L272.901,80.322 L272.901,80.122 L272.701,80.122 L272.698,80.119 C270.378,80.102 268.244,79.805 266.301,79.222 C264.301,78.622 262.467,77.722 260.801,76.522 C259.133,75.322 257.701,73.891 256.501,72.222 C255.301,70.557 254.401,68.722 253.801,66.722 C253.219,64.781 252.925,62.647 252.908,60.329 L252.901,60.322 L252.901,60.122 L252.701,60.122 L252.698,60.119 C250.378,60.102 248.244,59.805 246.301,59.222 C244.301,58.622 242.470,57.722 240.801,56.522 C239.136,55.322 237.701,53.891 236.501,52.222 C235.858,51.329 235.308,50.384 234.837,49.395 C234.719,49.640 234.598,49.883 234.471,50.123 C235.044,51.199 235.523,52.327 235.881,53.522 C236.464,55.464 236.758,57.597 236.775,59.916 L236.781,59.922 L236.781,60.122 L236.781,60.322 L236.775,60.329 C236.758,62.647 236.464,64.781 235.881,66.722 C235.281,68.722 234.381,70.557 233.181,72.222 C231.981,73.891 230.547,75.322 228.881,76.522 C227.213,77.722 225.381,78.622 223.381,79.222 C221.438,79.805 219.305,80.102 216.985,80.119 L216.981,80.122 L216.985,80.125 C219.305,80.142 221.438,80.439 223.381,81.022 C225.381,81.622 227.213,82.522 228.881,83.722 C230.547,84.922 231.981,86.357 233.181,88.022 C234.381,89.691 235.281,91.522 235.881,93.522 C236.464,95.464 236.758,97.597 236.775,99.916 L236.781,99.922 L236.781,100.122 L236.781,100.322 L236.775,100.329 C236.758,102.647 236.464,104.781 235.881,106.722 C235.523,107.918 235.044,109.046 234.471,110.123 C235.044,111.199 235.523,112.327 235.881,113.522 C236.464,115.464 236.758,117.597 236.775,119.916 L236.781,119.922 L236.781,120.122 L236.781,120.322 L236.775,120.329 C236.758,122.647 236.464,124.781 235.881,126.722 C235.281,128.722 234.381,130.553 233.181,132.222 C231.981,133.888 230.547,135.322 228.881,136.522 C227.213,137.722 225.381,138.622 223.381,139.222 C221.438,139.805 219.305,140.102 216.985,140.119 L216.981,140.122 L216.781,140.122 L216.581,140.122 L216.578,140.119 C214.258,140.102 212.124,139.805 210.181,139.222 C208.181,138.622 206.347,137.722 204.681,136.522 C203.013,135.322 201.581,133.888 200.381,132.222 C199.181,130.553 198.281,128.722 197.681,126.722 C197.099,124.781 196.805,122.647 196.788,120.329 L196.781,120.322 L196.781,120.122 L196.781,119.922 L196.788,119.916 C196.805,117.597 197.099,115.464 197.681,113.522 C198.040,112.327 198.519,111.199 199.092,110.123 C198.519,109.046 198.040,107.918 197.681,106.722 C197.099,104.781 196.805,102.647 196.788,100.329 L196.781,100.322 L196.781,100.122 L196.581,100.122 L196.578,100.119 C194.258,100.102 192.124,99.805 190.181,99.222 C188.988,98.864 187.855,98.397 186.781,97.826 C185.706,98.397 184.575,98.864 183.381,99.222 C181.438,99.805 179.305,100.102 176.985,100.119 L176.981,100.122 L176.781,100.122 L176.581,100.122 L176.578,100.119 C174.258,100.102 172.124,99.805 170.181,99.222 C168.988,98.864 167.855,98.397 166.781,97.826 C165.706,98.397 164.575,98.864 163.381,99.222 C161.438,99.805 159.305,100.102 156.985,100.119 L156.981,100.122 L156.781,100.122 L156.781,100.322 L156.775,100.329 C156.758,102.647 156.464,104.781 155.881,106.722 C155.523,107.918 155.044,109.046 154.471,110.123 C155.044,111.199 155.523,112.327 155.881,113.522 C156.464,115.464 156.758,117.597 156.775,119.916 L156.781,119.922 L156.781,120.122 L156.781,120.322 L156.775,120.329 C156.758,122.647 156.464,124.781 155.881,126.722 C155.281,128.722 154.381,130.553 153.181,132.222 C151.981,133.888 150.547,135.322 148.881,136.522 C147.213,137.722 145.381,138.622 143.381,139.222 C141.438,139.805 139.305,140.102 136.985,140.119 L136.981,140.122 L136.781,140.122 L136.581,140.122 L136.578,140.119 C134.258,140.102 132.124,139.805 130.181,139.222 C128.181,138.622 126.350,137.722 124.681,136.522 C123.016,135.322 121.581,133.888 120.381,132.222 C119.181,130.553 118.281,128.722 117.681,126.722 C117.099,124.781 116.805,122.647 116.788,120.329 L116.781,120.322 L116.781,120.122 L116.781,119.922 L116.788,119.916 C116.805,117.597 117.099,115.464 117.681,113.522 C118.040,112.327 118.519,111.199 119.092,110.123 C118.966,109.885 118.837,109.648 118.721,109.404 C118.251,110.390 117.703,111.332 117.061,112.222 C115.861,113.891 114.427,115.322 112.761,116.522 C111.093,117.722 109.261,118.622 107.261,119.222 C105.318,119.805 103.185,120.102 100.865,120.119 L100.861,120.122 L100.661,120.122 L100.661,120.322 L100.655,120.329 C100.638,122.647 100.344,124.781 99.761,126.722 C99.161,128.722 98.261,130.553 97.061,132.222 C95.861,133.888 94.427,135.322 92.761,136.522 C91.093,137.722 89.261,138.622 87.261,139.222 C85.318,139.805 83.185,140.102 80.865,140.119 L80.861,140.122 L80.661,140.122 L80.461,140.122 L80.458,140.119 C78.138,140.102 76.004,139.805 74.061,139.222 C72.868,138.864 71.735,138.397 70.661,137.826 C69.586,138.397 68.455,138.864 67.261,139.222 C65.318,139.805 63.185,140.102 60.865,140.119 L60.861,140.122 L60.661,140.122 L60.461,140.122 L60.458,140.119 C58.138,140.102 56.004,139.805 54.061,139.222 C52.868,138.864 51.735,138.397 50.661,137.826 C49.586,138.397 48.455,138.864 47.261,139.222 C45.318,139.805 43.185,140.102 40.865,140.119 L40.861,140.122 L40.661,140.122 L40.461,140.122 L40.458,140.119 C38.138,140.102 36.004,139.805 34.061,139.222 C32.061,138.622 30.227,137.722 28.561,136.522 C26.893,135.322 25.461,133.888 24.261,132.222 C23.061,130.553 22.161,128.722 21.561,126.722 C20.979,124.781 20.685,122.647 20.668,120.329 L20.661,120.322 L20.661,120.122 L20.461,120.122 L20.458,120.119 C18.138,120.102 16.004,119.805 14.061,119.222 C12.061,118.622 10.230,117.722 8.561,116.522 C6.896,115.322 5.461,113.891 4.261,112.222 C3.061,110.557 2.161,108.722 1.561,106.722 C0.979,104.781 0.685,102.647 0.668,100.329 L0.661,100.322 L0.661,100.122 L0.661,99.922 L0.668,99.916 C0.685,97.597 0.979,95.464 1.561,93.522 C1.920,92.327 2.399,91.199 2.972,90.123 C2.399,89.046 1.920,87.918 1.561,86.722 C0.979,84.781 0.685,82.647 0.668,80.329 L0.661,80.322 L0.661,80.122 L0.661,79.922 L0.668,79.916 C0.685,77.597 0.979,75.464 1.561,73.522 C1.920,72.327 2.399,71.199 2.972,70.123 C2.399,69.046 1.920,67.918 1.561,66.722 C0.979,64.781 0.685,62.647 0.668,60.329 L0.661,60.322 L0.661,60.122 L0.661,59.922 L0.668,59.916 C0.685,57.597 0.979,55.464 1.561,53.522 C1.920,52.327 2.399,51.199 2.972,50.123 C2.399,49.046 1.920,47.918 1.561,46.722 C0.979,44.781 0.685,42.647 0.668,40.329 L0.661,40.322 L0.661,40.122 L0.661,39.922 L0.668,39.916 C0.685,37.597 0.979,35.464 1.561,33.522 C2.161,31.522 3.061,29.691 4.261,28.022 C5.461,26.357 6.896,24.922 8.561,23.722 C10.230,22.522 12.061,21.622 14.061,21.022 C16.004,20.439 18.138,20.142 20.458,20.125 L20.461,20.122 L20.661,20.122 L20.661,19.922 L20.668,19.916 C20.685,17.597 20.979,15.464 21.561,13.522 C22.161,11.522 23.061,9.691 24.261,8.022 C25.461,6.357 26.893,4.922 28.561,3.722 C30.227,2.522 32.061,1.622 34.061,1.022 C36.004,0.439 38.138,0.142 40.458,0.125 L40.461,0.122 L40.661,0.122 L40.861,0.122 L40.865,0.125 C43.185,0.142 45.318,0.439 47.261,1.022 C48.455,1.380 49.586,1.847 50.661,2.419 C51.735,1.847 52.868,1.380 54.061,1.022 C56.004,0.439 58.138,0.142 60.458,0.125 L60.461,0.122 L60.661,0.122 L60.861,0.122 L60.865,0.125 C63.185,0.142 65.318,0.439 67.261,1.022 C68.455,1.380 69.586,1.847 70.661,2.419 C71.735,1.847 72.868,1.380 74.061,1.022 C76.004,0.439 78.138,0.142 80.458,0.125 L80.461,0.122 L80.661,0.122 L80.861,0.122 L80.865,0.125 C83.185,0.142 85.318,0.439 87.261,1.022 C89.261,1.622 91.093,2.522 92.761,3.722 C94.427,4.922 95.861,6.357 97.061,8.022 C98.261,9.691 99.161,11.522 99.761,13.522 C100.344,15.464 100.638,17.597 100.655,19.916 L100.661,19.922 L100.661,20.122 L100.861,20.122 L100.865,20.125 C103.185,20.142 105.318,20.439 107.261,21.022 C109.261,21.622 111.093,22.522 112.761,23.722 C114.427,24.922 115.861,26.357 117.061,28.022 C117.703,28.914 118.251,29.856 118.721,30.841 C118.837,30.598 118.966,30.361 119.092,30.123 C118.519,29.046 118.040,27.918 117.681,26.722 C117.099,24.781 116.805,22.647 116.788,20.329 L116.781,20.322 L116.781,20.122 L116.781,19.922 L116.788,19.916 C116.805,17.597 117.099,15.464 117.681,13.522 C118.281,11.522 119.181,9.691 120.381,8.022 C121.581,6.357 123.016,4.922 124.681,3.722 C126.350,2.522 128.181,1.622 130.181,1.022 C132.124,0.439 134.258,0.142 136.578,0.125 L136.581,0.122 L136.781,0.122 L136.981,0.122 L136.985,0.125 C139.305,0.142 141.438,0.439 143.381,1.022 C144.575,1.380 145.706,1.847 146.781,2.419 C147.855,1.847 148.988,1.380 150.181,1.022 C152.124,0.439 154.258,0.142 156.578,0.125 L156.581,0.122 L156.781,0.122 L156.981,0.122 L156.985,0.125 C159.305,0.142 161.438,0.439 163.381,1.022 C164.575,1.380 165.706,1.847 166.781,2.419 C167.855,1.847 168.988,1.380 170.181,1.022 C172.124,0.439 174.258,0.142 176.578,0.125 L176.581,0.122 L176.781,0.122 L176.981,0.122 L176.985,0.125 C179.305,0.142 181.438,0.439 183.381,1.022 C184.575,1.380 185.706,1.847 186.781,2.419 C187.855,1.847 188.988,1.380 190.181,1.022 C192.124,0.439 194.258,0.142 196.578,0.125 L196.581,0.122 L196.781,0.122 L196.981,0.122 L196.985,0.125 C199.305,0.142 201.438,0.439 203.381,1.022 C205.381,1.622 207.213,2.522 208.881,3.722 C210.547,4.922 211.981,6.357 213.181,8.022 C214.381,9.691 215.281,11.522 215.881,13.522 C216.464,15.464 216.758,17.597 216.775,19.916 L216.781,19.922 L216.781,20.122 L216.981,20.122 L216.985,20.125 C219.305,20.142 221.438,20.439 223.381,21.022 C225.381,21.622 227.213,22.522 228.881,23.722 C230.547,24.922 231.981,26.357 233.181,28.022 C233.823,28.914 234.371,29.856 234.841,30.841 C234.957,30.598 235.086,30.361 235.212,30.123 C234.639,29.046 234.160,27.918 233.801,26.722 C233.219,24.781 232.925,22.647 232.908,20.329 L232.901,20.322 L232.901,20.122 L232.901,19.922 L232.908,19.916 C232.925,17.597 233.219,15.464 233.801,13.522 C234.401,11.522 235.301,9.691 236.501,8.022 C237.701,6.357 239.136,4.922 240.801,3.722 C242.470,2.522 244.301,1.622 246.301,1.022 C248.244,0.439 250.378,0.142 252.698,0.125 L252.701,0.122 L252.901,0.122 L253.101,0.122 L253.105,0.125 C255.425,0.142 257.558,0.439 259.501,1.022 C261.501,1.622 263.333,2.522 265.001,3.722 C266.667,4.922 268.101,6.357 269.301,8.022 C270.501,9.691 271.401,11.522 272.001,13.522 C272.584,15.464 272.878,17.597 272.895,19.916 L272.901,19.922 L272.901,20.122 L272.901,20.322 L272.895,20.329 C272.878,22.647 272.584,24.781 272.001,26.722 C271.643,27.918 271.164,29.046 270.591,30.123 C271.164,31.199 271.643,32.327 272.001,33.522 C272.584,35.464 272.878,37.597 272.895,39.916 L272.901,39.922 L272.901,40.122 L273.101,40.122 L273.105,40.125 C275.425,40.142 277.558,40.439 279.501,41.022 C281.501,41.622 283.333,42.522 285.001,43.722 C286.667,44.922 288.101,46.357 289.301,48.022 C290.501,49.691 291.401,51.522 292.001,53.522 C292.584,55.464 292.878,57.597 292.895,59.916 L292.901,59.922 L292.908,59.916 C292.925,57.597 293.219,55.464 293.801,53.522 C294.401,51.522 295.301,49.691 296.501,48.022 C297.701,46.357 299.133,44.922 300.801,43.722 C302.467,42.522 304.301,41.622 306.301,41.022 C308.244,40.439 310.378,40.142 312.698,40.125 L312.701,40.122 L312.901,40.122 L312.901,39.922 L312.908,39.916 C312.925,37.597 313.219,35.464 313.801,33.522 C314.160,32.327 314.639,31.199 315.212,30.123 C314.639,29.046 314.160,27.918 313.801,26.722 C313.219,24.781 312.925,22.647 312.908,20.329 L312.901,20.322 L312.901,20.122 L312.901,19.922 L312.908,19.916 C312.925,17.597 313.219,15.464 313.801,13.522 C314.401,11.522 315.301,9.691 316.501,8.022 C317.701,6.357 319.133,4.922 320.801,3.722 C322.467,2.522 324.301,1.622 326.301,1.022 C328.244,0.439 330.378,0.142 332.698,0.125 L332.701,0.122 L332.901,0.122 L333.101,0.122 L333.105,0.125 C335.425,0.142 337.558,0.439 339.501,1.022 C341.501,1.622 343.333,2.522 345.001,3.722 C346.667,4.922 348.101,6.357 349.301,8.022 C349.943,8.914 350.491,9.856 350.961,10.841 C351.431,9.856 351.980,8.914 352.621,8.022 C353.821,6.357 355.256,4.922 356.921,3.722 C358.590,2.522 360.421,1.622 362.421,1.022 C364.364,0.439 366.498,0.142 368.818,0.125 L368.821,0.122 L369.021,0.122 L369.221,0.122 L369.225,0.125 C371.545,0.142 373.678,0.439 375.621,1.022 C376.815,1.380 377.946,1.847 379.021,2.419 C380.095,1.847 381.228,1.380 382.421,1.022 C384.364,0.439 386.498,0.142 388.818,0.125 L388.821,0.122 L389.021,0.122 L389.221,0.122 L389.225,0.125 C391.545,0.142 393.678,0.439 395.621,1.022 C396.815,1.380 397.946,1.847 399.021,2.419 C400.095,1.847 401.228,1.380 402.421,1.022 C404.364,0.439 406.498,0.142 408.818,0.125 L408.821,0.122 L409.021,0.122 L409.221,0.122 L409.225,0.125 C411.545,0.142 413.678,0.439 415.621,1.022 C416.815,1.380 417.946,1.847 419.021,2.419 C420.095,1.847 421.228,1.380 422.421,1.022 C424.364,0.439 426.498,0.142 428.818,0.125 L428.821,0.122 L429.021,0.122 L429.221,0.122 L429.225,0.125 C431.545,0.142 433.678,0.439 435.621,1.022 C437.621,1.622 439.453,2.522 441.121,3.722 C442.787,4.922 444.221,6.357 445.421,8.022 C446.621,9.691 447.521,11.522 448.121,13.522 C448.704,15.464 448.998,17.597 449.015,19.916 L449.021,19.922 L449.021,20.122 L449.221,20.122 L449.225,20.125 C451.545,20.142 453.678,20.439 455.621,21.022 C457.621,21.622 459.453,22.522 461.121,23.722 C462.577,24.771 463.856,25.999 464.956,27.403 C464.878,27.176 464.791,26.954 464.721,26.722 C464.139,24.781 463.845,22.647 463.828,20.329 L463.821,20.322 L463.821,20.122 L463.821,19.922 L463.828,19.916 C463.845,17.597 464.139,15.464 464.721,13.522 C465.321,11.522 466.221,9.691 467.421,8.022 C468.621,6.357 470.056,4.922 471.721,3.722 C473.390,2.522 475.221,1.622 477.221,1.022 C479.164,0.439 481.298,0.142 483.618,0.125 L483.621,0.122 L483.821,0.122 L484.021,0.122 L484.025,0.125 C486.345,0.142 488.478,0.439 490.421,1.022 C491.615,1.380 492.746,1.847 493.821,2.419 C494.895,1.847 496.028,1.380 497.221,1.022 C499.164,0.439 501.298,0.142 503.618,0.125 L503.621,0.122 L503.821,0.122 L504.021,0.122 L504.025,0.125 C506.345,0.142 508.478,0.439 510.421,1.022 C511.615,1.380 512.746,1.847 513.821,2.419 C514.895,1.847 516.028,1.380 517.221,1.022 C519.164,0.439 521.298,0.142 523.618,0.125 L523.621,0.122 L523.821,0.122 L524.021,0.122 L524.025,0.125 C526.345,0.142 528.478,0.439 530.421,1.022 C531.615,1.380 532.746,1.847 533.821,2.419 C534.895,1.847 536.028,1.380 537.221,1.022 C539.164,0.439 541.298,0.142 543.618,0.125 L543.621,0.122 L543.821,0.122 L544.021,0.122 L544.025,0.125 C546.345,0.142 548.478,0.439 550.421,1.022 C551.615,1.380 552.746,1.847 553.821,2.419 C554.895,1.847 556.028,1.380 557.221,1.022 C559.164,0.439 561.298,0.142 563.618,0.125 L563.621,0.122 L563.821,0.122 L564.021,0.122 L564.025,0.125 C566.345,0.142 568.478,0.439 570.421,1.022 C572.421,1.622 574.253,2.522 575.921,3.722 C576.431,4.089 576.915,4.481 577.381,4.891 C577.847,4.481 578.332,4.089 578.841,3.722 C580.510,2.522 582.341,1.622 584.341,1.022 C586.284,0.439 588.418,0.142 590.738,0.125 L590.741,0.122 L590.941,0.122 L591.141,0.122 L591.145,0.125 C593.465,0.142 595.598,0.439 597.541,1.022 C599.541,1.622 601.373,2.522 603.041,3.722 C604.707,4.922 606.141,6.357 607.341,8.022 C608.541,9.691 609.441,11.522 610.041,13.522 C610.106,13.738 610.154,13.965 610.212,14.185 C610.269,13.965 610.317,13.738 610.381,13.522 C610.981,11.522 611.881,9.691 613.081,8.022 C614.281,6.357 615.716,4.922 617.381,3.722 C619.050,2.522 620.881,1.622 622.881,1.022 C624.824,0.439 626.958,0.142 629.278,0.125 L629.281,0.122 L629.481,0.122 L629.681,0.122 L629.685,0.125 C632.005,0.142 634.138,0.439 636.081,1.022 C638.081,1.622 639.913,2.522 641.581,3.722 C643.247,4.922 644.681,6.357 645.881,8.022 C647.081,9.691 647.981,11.522 648.581,13.522 C649.164,15.464 649.458,17.597 649.475,19.916 L649.481,19.922 L649.481,20.122 L649.481,20.322 L649.475,20.329 C649.458,22.647 649.164,24.781 648.581,26.722 C648.223,27.918 647.744,29.046 647.171,30.123 C647.744,31.199 648.223,32.327 648.581,33.522 C649.164,35.464 649.458,37.597 649.475,39.916 L649.481,39.922 L649.481,40.122 L649.481,40.322 L649.475,40.329 C649.458,42.647 649.164,44.781 648.581,46.722 C648.223,47.918 647.744,49.046 647.171,50.123 C647.744,51.199 648.223,52.327 648.581,53.522 C649.164,55.464 649.458,57.597 649.475,59.916 L649.481,59.922 L649.488,59.916 C649.505,57.597 649.799,55.464 650.381,53.522 C650.981,51.522 651.881,49.691 653.081,48.022 C654.281,46.357 655.713,44.922 657.381,43.722 C659.047,42.522 660.881,41.622 662.881,41.022 C664.824,40.439 666.958,40.142 669.278,40.125 L669.281,40.122 L669.481,40.122 L669.481,39.922 L669.488,39.916 C669.505,37.597 669.799,35.464 670.381,33.522 C670.981,31.522 671.881,29.691 673.081,28.022 C674.281,26.357 675.713,24.922 677.381,23.722 C679.047,22.522 680.881,21.622 682.881,21.022 C684.824,20.439 686.958,20.142 689.278,20.125 L689.281,20.122 L689.481,20.122 L689.481,19.922 L689.488,19.916 C689.505,17.597 689.799,15.464 690.381,13.522 C690.981,11.522 691.881,9.691 693.081,8.022 C694.281,6.357 695.713,4.922 697.381,3.722 C699.047,2.522 700.881,1.622 702.881,1.022 C704.824,0.439 706.958,0.142 709.278,0.125 L709.281,0.122 L709.481,0.122 L709.681,0.122 L709.685,0.125 C712.005,0.142 714.138,0.439 716.081,1.022 C718.081,1.622 719.913,2.522 721.581,3.722 C723.247,4.922 724.681,6.357 725.881,8.022 C726.523,8.914 727.071,9.856 727.541,10.841 C728.011,9.856 728.560,8.914 729.201,8.022 C730.401,6.357 731.836,4.922 733.501,3.722 C735.170,2.522 737.001,1.622 739.001,1.022 C740.944,0.439 743.078,0.142 745.398,0.125 L745.401,0.122 L745.601,0.122 L745.801,0.122 L745.805,0.125 C748.125,0.142 750.258,0.439 752.201,1.022 C754.201,1.622 756.033,2.522 757.701,3.722 C759.367,4.922 760.801,6.357 762.001,8.022 C763.201,9.691 764.101,11.522 764.701,13.522 C765.284,15.464 765.578,17.597 765.595,19.916 L765.601,19.922 L765.601,20.122 L765.601,20.322 L765.595,20.329 C765.578,22.647 765.284,24.781 764.701,26.722 C764.343,27.918 763.864,29.046 763.291,30.123 C763.864,31.199 764.343,32.327 764.701,33.522 C765.284,35.464 765.578,37.597 765.595,39.916 L765.601,39.922 L765.601,40.122 L765.601,40.322 L765.595,40.329 C765.578,42.647 765.284,44.781 764.701,46.722 C764.343,47.918 763.864,49.046 763.291,50.123 C763.864,51.199 764.343,52.327 764.701,53.522 C765.284,55.464 765.578,57.597 765.595,59.916 L765.601,59.922 L765.608,59.916 C765.625,57.597 765.919,55.464 766.501,53.522 C767.101,51.522 768.001,49.691 769.201,48.022 C770.401,46.357 771.833,44.922 773.501,43.722 C775.167,42.522 777.001,41.622 779.001,41.022 C780.944,40.439 783.078,40.142 785.398,40.125 L785.401,40.122 L785.601,40.122 L785.601,39.922 L785.608,39.916 C785.625,37.597 785.919,35.464 786.501,33.522 C787.101,31.522 788.001,29.691 789.201,28.022 C790.401,26.357 791.833,24.922 793.501,23.722 C795.167,22.522 797.001,21.622 799.001,21.022 C800.944,20.439 803.078,20.142 805.398,20.125 L805.401,20.122 L805.601,20.122 L805.601,19.922 L805.608,19.916 C805.625,17.597 805.919,15.464 806.501,13.522 C807.101,11.522 808.001,9.691 809.201,8.022 C810.401,6.357 811.833,4.922 813.501,3.722 C815.167,2.522 817.001,1.622 819.001,1.022 C820.944,0.439 823.078,0.142 825.398,0.125 L825.401,0.122 L825.601,0.122 L825.801,0.122 L825.805,0.125 C828.125,0.142 830.258,0.439 832.201,1.022 C834.201,1.622 836.033,2.522 837.701,3.722 C839.367,4.922 840.801,6.357 842.001,8.022 C842.643,8.914 843.191,9.856 843.661,10.841 C844.131,9.856 844.680,8.914 845.321,8.022 C846.521,6.357 847.956,4.922 849.621,3.722 C851.290,2.522 853.121,1.622 855.121,1.022 C857.064,0.439 859.198,0.142 861.518,0.125 L861.521,0.122 L861.721,0.122 L861.921,0.122 L861.925,0.125 C864.245,0.142 866.378,0.439 868.321,1.022 C870.321,1.622 872.153,2.522 873.821,3.722 C875.487,4.922 876.921,6.357 878.121,8.022 C879.321,9.691 880.221,11.522 880.821,13.522 C881.404,15.464 881.698,17.597 881.715,19.916 L881.721,19.922 L881.721,20.122 L881.721,20.322 L881.715,20.329 C881.698,22.647 881.404,24.781 880.821,26.722 C880.463,27.918 879.984,29.046 879.411,30.123 C879.984,31.199 880.463,32.327 880.821,33.522 C881.404,35.464 881.698,37.597 881.715,39.916 L881.721,39.922 L881.721,40.122 L881.721,40.322 L881.715,40.329 C881.698,42.647 881.404,44.781 880.821,46.722 C880.463,47.918 879.984,49.046 879.411,50.123 C879.984,51.199 880.463,52.327 880.821,53.522 C881.404,55.464 881.698,57.597 881.715,59.916 L881.721,59.922 L881.728,59.916 C881.745,57.597 882.039,55.464 882.621,53.522 C883.221,51.522 884.121,49.691 885.321,48.022 C886.521,46.357 887.953,44.922 889.621,43.722 C891.287,42.522 893.121,41.622 895.121,41.022 C897.064,40.439 899.198,40.142 901.518,40.125 L901.521,40.122 L901.721,40.122 L901.721,39.922 L901.728,39.916 C901.745,37.597 902.039,35.464 902.621,33.522 C903.221,31.522 904.121,29.691 905.321,28.022 C906.521,26.357 907.953,24.922 909.621,23.722 C911.287,22.522 913.121,21.622 915.121,21.022 C917.064,20.439 919.198,20.142 921.518,20.125 L921.521,20.122 L921.721,20.122 L921.721,19.922 L921.728,19.916 C921.745,17.597 922.039,15.464 922.621,13.522 C923.221,11.522 924.121,9.691 925.321,8.022 C926.521,6.357 927.953,4.922 929.621,3.722 C931.287,2.522 933.121,1.622 935.121,1.022 C937.064,0.439 939.198,0.142 941.518,0.125 L941.521,0.122 L941.721,0.122 L941.921,0.122 L941.925,0.125 C944.245,0.142 946.378,0.439 948.321,1.022 C950.321,1.622 952.153,2.522 953.821,3.722 C955.487,4.922 956.921,6.357 958.121,8.022 C959.321,9.691 960.221,11.522 960.821,13.522 C961.404,15.464 961.698,17.597 961.715,19.916 L961.721,19.922 L961.721,20.122 L961.721,20.322 L961.715,20.329 C961.698,22.647 961.404,24.781 960.821,26.722 C960.221,28.722 959.321,30.557 958.121,32.222 C956.921,33.891 955.487,35.322 953.821,36.522 C952.153,37.722 950.321,38.622 948.321,39.222 C946.378,39.805 944.245,40.102 941.925,40.119 L941.921,40.122 L941.721,40.122 L941.721,40.322 L941.715,40.329 C941.698,42.647 941.404,44.781 940.821,46.722 C940.221,48.722 939.321,50.557 938.121,52.222 C936.921,53.891 935.487,55.322 933.821,56.522 C932.153,57.722 930.321,58.622 928.321,59.222 C926.378,59.805 924.245,60.102 921.925,60.119 L921.921,60.122 L921.721,60.122 L921.721,60.322 L921.715,60.329 C921.698,62.647 921.404,64.781 920.821,66.722 C920.463,67.918 919.984,69.046 919.411,70.123 C919.984,71.199 920.463,72.327 920.821,73.522 C921.404,75.464 921.698,77.597 921.715,79.916 L921.721,79.922 L921.721,80.122 L921.921,80.122 L921.925,80.125 C924.245,80.142 926.378,80.439 928.321,81.022 C930.321,81.622 932.153,82.522 933.821,83.722 C935.487,84.922 936.921,86.357 938.121,88.022 C939.321,89.691 940.221,91.522 940.821,93.522 C941.404,95.464 941.698,97.597 941.715,99.916 L941.721,99.922 L941.721,100.122 L941.921,100.122 L941.925,100.125 C944.245,100.142 946.378,100.439 948.321,101.022 C950.321,101.622 952.153,102.522 953.821,103.722 C955.487,104.922 956.921,106.357 958.121,108.022 C959.321,109.691 960.221,111.522 960.821,113.522 C961.404,115.464 961.698,117.597 961.715,119.916 L961.721,119.922 L961.721,120.122 L961.721,120.322 L961.715,120.329 ZM116.788,79.916 C116.805,77.597 117.099,75.464 117.681,73.522 C118.040,72.327 118.519,71.199 119.092,70.123 C118.519,69.046 118.040,67.918 117.681,66.722 C117.099,64.781 116.805,62.647 116.788,60.329 L116.781,60.322 L116.781,60.122 L116.781,59.922 L116.788,59.916 C116.805,57.597 117.099,55.464 117.681,53.522 C118.040,52.327 118.519,51.199 119.092,50.123 C118.966,49.885 118.837,49.648 118.721,49.404 C118.251,50.390 117.703,51.332 117.061,52.222 C115.861,53.891 114.427,55.322 112.761,56.522 C111.093,57.722 109.261,58.622 107.261,59.222 C105.318,59.805 103.185,60.102 100.865,60.119 L100.861,60.122 L100.661,60.122 L100.461,60.122 L100.458,60.119 C98.138,60.102 96.004,59.805 94.061,59.222 C92.061,58.622 90.227,57.722 88.561,56.522 C86.893,55.322 85.461,53.891 84.261,52.222 C83.061,50.557 82.161,48.722 81.561,46.722 C80.979,44.781 80.685,42.647 80.668,40.329 L80.661,40.322 L80.661,40.122 L80.461,40.122 L80.458,40.119 C78.138,40.102 76.004,39.805 74.061,39.222 C72.868,38.864 71.735,38.397 70.661,37.826 C69.586,38.397 68.455,38.864 67.261,39.222 C65.318,39.805 63.185,40.102 60.865,40.119 L60.861,40.122 L60.661,40.122 L60.461,40.122 L60.458,40.119 C58.138,40.102 56.004,39.805 54.061,39.222 C52.868,38.864 51.735,38.397 50.661,37.826 C49.586,38.397 48.455,38.864 47.261,39.222 C45.318,39.805 43.185,40.102 40.865,40.119 L40.861,40.122 L40.661,40.122 L40.661,40.322 L40.655,40.329 C40.638,42.647 40.344,44.781 39.761,46.722 C39.403,47.918 38.924,49.046 38.351,50.123 C38.924,51.199 39.403,52.327 39.761,53.522 C40.344,55.464 40.638,57.597 40.655,59.916 L40.661,59.922 L40.661,60.122 L40.661,60.322 L40.655,60.329 C40.638,62.647 40.344,64.781 39.761,66.722 C39.403,67.918 38.924,69.046 38.351,70.123 C38.924,71.199 39.403,72.327 39.761,73.522 C40.344,75.464 40.638,77.597 40.655,79.916 L40.661,79.922 L40.661,80.122 L40.661,80.322 L40.655,80.329 C40.638,82.647 40.344,84.781 39.761,86.722 C39.403,87.918 38.924,89.046 38.351,90.123 C38.924,91.199 39.403,92.327 39.761,93.522 C40.344,95.464 40.638,97.597 40.655,99.916 L40.661,99.922 L40.661,100.122 L40.861,100.122 L40.865,100.125 C43.185,100.142 45.318,100.439 47.261,101.022 C48.455,101.380 49.586,101.847 50.661,102.419 C51.735,101.847 52.868,101.380 54.061,101.022 C56.004,100.439 58.138,100.142 60.458,100.125 L60.461,100.122 L60.661,100.122 L60.861,100.122 L60.865,100.125 C63.185,100.142 65.318,100.439 67.261,101.022 C68.455,101.380 69.586,101.847 70.661,102.419 C71.735,101.847 72.868,101.380 74.061,101.022 C76.004,100.439 78.138,100.142 80.458,100.125 L80.461,100.122 L80.661,100.122 L80.661,99.922 L80.668,99.916 C80.685,97.597 80.979,95.464 81.561,93.522 C82.161,91.522 83.061,89.691 84.261,88.022 C85.461,86.357 86.893,84.922 88.561,83.722 C90.227,82.522 92.061,81.622 94.061,81.022 C96.004,80.439 98.138,80.142 100.458,80.125 L100.461,80.122 L100.661,80.122 L100.861,80.122 L100.865,80.125 C103.185,80.142 105.318,80.439 107.261,81.022 C109.261,81.622 111.093,82.522 112.761,83.722 C114.427,84.922 115.861,86.357 117.061,88.022 C117.703,88.914 118.251,89.856 118.721,90.841 C118.837,90.598 118.966,90.361 119.092,90.123 C118.519,89.046 118.040,87.918 117.681,86.722 C117.099,84.781 116.805,82.647 116.788,80.329 L116.781,80.322 L116.781,80.122 L116.781,79.922 L116.788,79.916 ZM197.681,46.722 C197.099,44.781 196.805,42.647 196.788,40.329 L196.781,40.322 L196.781,40.122 L196.581,40.122 L196.578,40.119 C194.258,40.102 192.124,39.805 190.181,39.222 C188.988,38.864 187.855,38.397 186.781,37.826 C185.706,38.397 184.575,38.864 183.381,39.222 C181.438,39.805 179.305,40.102 176.985,40.119 L176.981,40.122 L176.781,40.122 L176.581,40.122 L176.578,40.119 C174.258,40.102 172.124,39.805 170.181,39.222 C168.988,38.864 167.855,38.397 166.781,37.826 C165.706,38.397 164.575,38.864 163.381,39.222 C161.438,39.805 159.305,40.102 156.985,40.119 L156.981,40.122 L156.781,40.122 L156.781,40.322 L156.775,40.329 C156.758,42.647 156.464,44.781 155.881,46.722 C155.523,47.918 155.044,49.046 154.471,50.123 C155.044,51.199 155.523,52.327 155.881,53.522 C156.464,55.464 156.758,57.597 156.775,59.916 L156.781,59.922 L156.781,60.122 L156.981,60.122 L156.985,60.125 C159.305,60.142 161.438,60.439 163.381,61.022 C164.575,61.380 165.706,61.847 166.781,62.419 C167.855,61.847 168.988,61.380 170.181,61.022 C172.124,60.439 174.258,60.142 176.578,60.125 L176.581,60.122 L176.781,60.122 L176.981,60.122 L176.985,60.125 C179.305,60.142 181.438,60.439 183.381,61.022 C184.575,61.380 185.706,61.847 186.781,62.419 C187.855,61.847 188.988,61.380 190.181,61.022 C192.124,60.439 194.258,60.142 196.578,60.125 L196.581,60.122 L196.781,60.122 L196.781,59.922 L196.788,59.916 C196.805,57.597 197.099,55.464 197.681,53.522 C198.040,52.327 198.519,51.199 199.092,50.123 C198.519,49.046 198.040,47.918 197.681,46.722 ZM350.957,29.395 C350.839,29.640 350.718,29.883 350.591,30.123 C350.718,30.362 350.839,30.606 350.957,30.850 C351.075,30.604 351.204,30.364 351.332,30.123 C351.204,29.882 351.075,29.642 350.957,29.395 ZM429.921,46.722 C429.339,44.781 429.045,42.647 429.028,40.329 L429.021,40.322 L429.021,40.122 L428.821,40.122 L428.818,40.119 C426.498,40.102 424.364,39.805 422.421,39.222 C421.228,38.864 420.095,38.397 419.021,37.826 C417.946,38.397 416.815,38.864 415.621,39.222 C413.678,39.805 411.545,40.102 409.225,40.119 L409.221,40.122 L409.021,40.122 L408.821,40.122 L408.818,40.119 C406.498,40.102 404.364,39.805 402.421,39.222 C401.228,38.864 400.095,38.397 399.021,37.826 C397.946,38.397 396.815,38.864 395.621,39.222 C393.678,39.805 391.545,40.102 389.225,40.119 L389.221,40.122 L389.021,40.122 L389.021,40.322 L389.015,40.329 C388.998,42.647 388.704,44.781 388.121,46.722 C387.763,47.918 387.284,49.046 386.711,50.123 C387.284,51.199 387.763,52.327 388.121,53.522 C388.704,55.464 388.998,57.597 389.015,59.916 L389.021,59.922 L389.021,60.122 L389.221,60.122 L389.225,60.125 C391.545,60.142 393.678,60.439 395.621,61.022 C396.815,61.380 397.946,61.847 399.021,62.419 C400.095,61.847 401.228,61.380 402.421,61.022 C404.364,60.439 406.498,60.142 408.818,60.125 L408.821,60.122 L409.021,60.122 L409.221,60.122 L409.225,60.125 C411.545,60.142 413.678,60.439 415.621,61.022 C416.815,61.380 417.946,61.847 419.021,62.419 C420.095,61.847 421.228,61.380 422.421,61.022 C424.364,60.439 426.498,60.142 428.818,60.125 L428.821,60.122 L429.021,60.122 L429.021,59.922 L429.028,59.916 C429.045,57.597 429.339,55.464 429.921,53.522 C430.280,52.327 430.759,51.199 431.332,50.123 C430.759,49.046 430.280,47.918 429.921,46.722 ZM610.381,26.722 C610.317,26.507 610.269,26.279 610.212,26.059 C610.154,26.280 610.106,26.507 610.041,26.722 C609.683,27.918 609.204,29.046 608.631,30.123 C609.204,31.199 609.683,32.327 610.041,33.522 C610.106,33.738 610.154,33.965 610.212,34.185 C610.269,33.965 610.317,33.738 610.381,33.522 C610.740,32.327 611.219,31.199 611.792,30.123 C611.219,29.046 610.740,27.918 610.381,26.722 ZM610.381,46.722 C610.317,46.507 610.269,46.279 610.212,46.059 C610.154,46.280 610.106,46.507 610.041,46.722 C609.683,47.918 609.204,49.046 608.631,50.123 C609.204,51.199 609.683,52.327 610.041,53.522 C610.106,53.738 610.154,53.965 610.212,54.185 C610.269,53.965 610.317,53.738 610.381,53.522 C610.740,52.327 611.219,51.199 611.792,50.123 C611.219,49.046 610.740,47.918 610.381,46.722 ZM610.041,73.522 C610.106,73.738 610.154,73.965 610.212,74.185 C610.269,73.965 610.317,73.738 610.381,73.522 C610.740,72.327 611.219,71.199 611.792,70.123 C611.219,69.046 610.740,67.918 610.381,66.722 C610.317,66.507 610.269,66.279 610.212,66.059 C610.154,66.280 610.106,66.507 610.041,66.722 C609.683,67.918 609.204,69.046 608.631,70.123 C609.204,71.199 609.683,72.327 610.041,73.522 ZM608.631,90.123 C609.204,91.199 609.683,92.327 610.041,93.522 C610.106,93.738 610.154,93.965 610.212,94.185 C610.269,93.965 610.317,93.738 610.381,93.522 C610.740,92.327 611.219,91.199 611.792,90.123 C611.219,89.046 610.740,87.918 610.381,86.722 C610.317,86.507 610.269,86.279 610.212,86.059 C610.154,86.280 610.106,86.507 610.041,86.722 C609.683,87.918 609.204,89.046 608.631,90.123 ZM610.381,106.722 C610.317,106.507 610.269,106.279 610.212,106.059 C610.154,106.280 610.106,106.507 610.041,106.722 C609.683,107.918 609.204,109.046 608.631,110.123 C609.204,111.199 609.683,112.327 610.041,113.522 C610.106,113.738 610.154,113.965 610.212,114.185 C610.269,113.965 610.317,113.738 610.381,113.522 C610.740,112.327 611.219,111.199 611.792,110.123 C611.219,109.046 610.740,107.918 610.381,106.722 ZM725.608,99.916 C725.625,97.597 725.919,95.464 726.501,93.522 C726.860,92.327 727.339,91.199 727.912,90.123 C727.339,89.046 726.860,87.918 726.501,86.722 C725.919,84.781 725.625,82.647 725.608,80.329 L725.601,80.322 L725.601,80.122 L725.601,79.922 L725.608,79.916 C725.625,77.597 725.919,75.464 726.501,73.522 C726.860,72.327 727.339,71.199 727.912,70.123 C727.339,69.046 726.860,67.918 726.501,66.722 C725.919,64.781 725.625,62.647 725.608,60.329 L725.601,60.322 L725.601,60.122 L725.601,59.922 L725.608,59.916 C725.625,57.597 725.919,55.464 726.501,53.522 C726.860,52.327 727.339,51.199 727.912,50.123 C727.339,49.046 726.860,47.918 726.501,46.722 C725.919,44.781 725.625,42.647 725.608,40.329 L725.601,40.322 L725.601,40.122 L725.601,39.922 L725.608,39.916 C725.625,37.597 725.919,35.464 726.501,33.522 C726.860,32.327 727.339,31.199 727.912,30.123 C727.786,29.885 727.657,29.648 727.541,29.404 C727.071,30.390 726.523,31.332 725.881,32.222 C724.681,33.891 723.247,35.322 721.581,36.522 C719.913,37.722 718.081,38.622 716.081,39.222 C714.138,39.805 712.005,40.102 709.685,40.119 L709.681,40.122 L709.481,40.122 L709.481,40.322 L709.475,40.329 C709.458,42.647 709.164,44.781 708.581,46.722 C707.981,48.722 707.081,50.557 705.881,52.222 C704.681,53.891 703.247,55.322 701.581,56.522 C699.913,57.722 698.081,58.622 696.081,59.222 C694.138,59.805 692.005,60.102 689.685,60.119 L689.681,60.122 L689.481,60.122 L689.481,60.322 L689.475,60.329 C689.458,62.647 689.164,64.781 688.581,66.722 C688.223,67.918 687.744,69.046 687.171,70.123 C687.744,71.199 688.223,72.327 688.581,73.522 C689.164,75.464 689.458,77.597 689.475,79.916 L689.481,79.922 L689.481,80.122 L689.681,80.122 L689.685,80.125 C692.005,80.142 694.138,80.439 696.081,81.022 C698.081,81.622 699.913,82.522 701.581,83.722 C703.247,84.922 704.681,86.357 705.881,88.022 C707.081,89.691 707.981,91.522 708.581,93.522 C709.164,95.464 709.458,97.597 709.475,99.916 L709.481,99.922 L709.481,100.122 L709.681,100.122 L709.685,100.125 C712.005,100.142 714.138,100.439 716.081,101.022 C718.081,101.622 719.913,102.522 721.581,103.722 C723.247,104.922 724.681,106.357 725.881,108.022 C726.523,108.914 727.071,109.856 727.541,110.841 C727.657,110.598 727.786,110.361 727.912,110.123 C727.339,109.046 726.860,107.918 726.501,106.722 C725.919,104.781 725.625,102.647 725.608,100.329 L725.601,100.322 L725.601,100.122 L725.601,99.922 L725.608,99.916 ZM832.201,39.222 C830.258,39.805 828.125,40.102 825.805,40.119 L825.801,40.122 L825.601,40.122 L825.601,40.322 L825.595,40.329 C825.578,42.647 825.284,44.781 824.701,46.722 C824.101,48.722 823.201,50.557 822.001,52.222 C820.801,53.891 819.367,55.322 817.701,56.522 C816.033,57.722 814.201,58.622 812.201,59.222 C810.258,59.805 808.125,60.102 805.805,60.119 L805.801,60.122 L805.601,60.122 L805.601,60.322 L805.595,60.329 C805.578,62.647 805.284,64.781 804.701,66.722 C804.343,67.918 803.864,69.046 803.291,70.123 C803.864,71.199 804.343,72.327 804.701,73.522 C805.284,75.464 805.578,77.597 805.595,79.916 L805.601,79.922 L805.601,80.122 L805.801,80.122 L805.805,80.125 C808.125,80.142 810.258,80.439 812.201,81.022 C814.201,81.622 816.033,82.522 817.701,83.722 C819.367,84.922 820.801,86.357 822.001,88.022 C823.201,89.691 824.101,91.522 824.701,93.522 C825.284,95.464 825.578,97.597 825.595,99.916 L825.601,99.922 L825.601,100.122 L825.801,100.122 L825.805,100.125 C828.125,100.142 830.258,100.439 832.201,101.022 C834.201,101.622 836.033,102.522 837.701,103.722 C839.367,104.922 840.801,106.357 842.001,108.022 C842.643,108.914 843.191,109.856 843.661,110.841 C843.777,110.598 843.906,110.361 844.032,110.123 C843.459,109.046 842.980,107.918 842.621,106.722 C842.039,104.781 841.745,102.647 841.728,100.329 L841.721,100.322 L841.721,100.122 L841.721,99.922 L841.728,99.916 C841.745,97.597 842.039,95.464 842.621,93.522 C842.980,92.327 843.459,91.199 844.032,90.123 C843.459,89.046 842.980,87.918 842.621,86.722 C842.039,84.781 841.745,82.647 841.728,80.329 L841.721,80.322 L841.721,80.122 L841.721,79.922 L841.728,79.916 C841.745,77.597 842.039,75.464 842.621,73.522 C842.980,72.327 843.459,71.199 844.032,70.123 C843.459,69.046 842.980,67.918 842.621,66.722 C842.039,64.781 841.745,62.647 841.728,60.329 L841.721,60.322 L841.721,60.122 L841.721,59.922 L841.728,59.916 C841.745,57.597 842.039,55.464 842.621,53.522 C842.980,52.327 843.459,51.199 844.032,50.123 C843.459,49.046 842.980,47.918 842.621,46.722 C842.039,44.781 841.745,42.647 841.728,40.329 L841.721,40.322 L841.721,40.122 L841.721,39.922 L841.728,39.916 C841.745,37.597 842.039,35.464 842.621,33.522 C842.980,32.327 843.459,31.199 844.032,30.123 C843.906,29.885 843.777,29.648 843.661,29.404 C843.191,30.390 842.643,31.332 842.001,32.222 C840.801,33.891 839.367,35.322 837.701,36.522 C836.033,37.722 834.201,38.622 832.201,39.222 Z"/>
</svg>